# xmcd
#
# Track frame offsets:
#	150
#	15681
#	31590
#	48042
#	64928
#	80406
#	96499
#	112362
#	126913
#	142450
#	162155
#	175388
#	189909
#	204830
#	218428
#	232360
#	248496
#	264685
#	280320
#	299061
#	316466
#	333958
#	348212
#
# Disc length: 4867 seconds
#
# Revision: 1
# Processed by: cddbd v1.5.2PL0 Copyright (c) Steve Scherf et al.
# Submitted via: audiograbber 1.83.01
#
DISCID=61130117
DTITLE=Various Artist - Pop Giganten Party Hits CD1 2767
DYEAR=1900
DGENRE=
TTITLE0=Mickie Krause - Schatzi Schenk Mir Ein Foto
TTITLE1=Stereoact Feat. Kerstin Ott - Die Immer Lacht
TTITLE2=Dj Ötzi - Sweet Caroline
TTITLE3=Lorenz Büffel - Johnny Däpp (Ich Will Mallorca Zurück)
TTITLE4=Die Atzen, Frauenarzt and Manny Marc - Disco Pogo
TTITLE5=Peter Wackel - Scheiss Drauf! (Party Ist Nur Einmal Im Jahr)
TTITLE6=Wolfgang Petry - Weiss Der Geier (Tanzbar!)
TTITLE7=Olaf Henning - Cowboy Und Indianer
TTITLE8=Geier Sturzflug - Pure Lust Am Leben
TTITLE9=Roland Kaiser - Joana (Party-Remix 2010)
TTITLE10=Kolibris - Die Hände Zum Himmel
TTITLE11=Volker Racho - Das Rote Pferd
TTITLE12=Donikkl - So A Schöner Tag
TTITLE13=Marianne Rosenberg - Er Gehört Zu Mir
TTITLE14=Dieter Thomas Kuhn and Band - Über Den Wolken
TTITLE15=Jürgen Drews - En Bett Im Kornfeld
TTITLE16=Smokie - Living Next Door To Alice (Who The Fuck Is Alice?)
TTITLE17=Hermes House Band and Tony Christie - (Is This The Way To) Amarillo
TTITLE18=Münchner Freiheit - Ohne Dich (Schlaf' Ich Heut Nacht Nicht Ein)
TTITLE19=Nena - 99 Luftballons
TTITLE20=Brings - Superjeilezick
TTITLE21=Höhner - Viva Colonia (Da Simmer Dabei, Dat Ist Prima!)
TTITLE22=Andrea Berg - Du Hast Mich Tausendmal Belogen
EXTD=
EXTT0=
EXTT1=
EXTT2=
EXTT3=
EXTT4=
EXTT5=
EXTT6=
EXTT7=
EXTT8=
EXTT9=
EXTT10=
EXTT11=
EXTT12=
EXTT13=
EXTT14=
EXTT15=
EXTT16=
EXTT17=
EXTT18=
EXTT19=
EXTT20=
EXTT21=
EXTT22=
PLAYORDER=
